# xmcd
#
# Track frame offsets:
#	150
#	15872
#	28796
#	46481
#	62507
#	82030
#	99351
#	114997
#	140158
#	155964
#	177460
#	190655
#	206606
#	223803
#	243053
#	266326
#	287375
#	313829
#
# Disc length: 4475 seconds
#
# Revision: 1
# Processed by: cddbd v1.5.1PL2 Copyright (c) Steve Scherf et al.
# Submitted via: EasyCDDAExtractor 6.2.0.3
#
DISCID=fc117912
DTITLE=Garth Brooks - PA State Fair, Philadelphia, PA (07/14/1989)
DYEAR=1989
DGENRE=Country
TTITLE0=Intro/Not Counting You
TTITLE1=I've Got A Good Thing Going
TTITLE2=We Bury The Hatchet
TTITLE3=Much Too Young (To Feel This Damn Old)
TTITLE4=Alabama Clay
TTITLE5=The Race Is On
TTITLE6=Please Come To Denver
TTITLE7=Everytime That It Rains
TTITLE8=Two Of A Kind, Workin' On A Full House
TTITLE9=The Thunder Rolls
TTITLE10=Nobody Gets Off In This Town
TTITLE11=Mr. Blue
TTITLE12=Same Old Story
TTITLE13=The South's Gonna Do It Again
TTITLE14=Friends In Low Places
TTITLE15=Wolves
TTITLE16=The Dance
TTITLE17=You May Be Right
EXTD=
EXTT0=
EXTT1=
EXTT2=
EXTT3=
EXTT4=
EXTT5=
EXTT6=
EXTT7=
EXTT8=
EXTT9=
EXTT10=
EXTT11=
EXTT12=
EXTT13=
EXTT14=
EXTT15=
EXTT16=
EXTT17=
PLAYORDER=
